<svg xmlns="http://www.w3.org/2000/svg" xmlns:xlink="http://www.w3.org/1999/xlink" contentStyleType="text/css" data-diagram-type="CLASS" height="1950px" preserveAspectRatio="none" style="width:2690px;height:1950px;background:#FFFFFF;" version="1.1" viewBox="0 0 2690 1950" width="2690px" zoomAndPan="magnify"><title>Complete ACN Architecture</title><defs/><g><text fill="#000000" font-family="sans-serif" font-size="14" font-weight="bold" lengthAdjust="spacing" textLength="215.9063" x="1230.0469" y="22.9951">Complete ACN Architecture</text><!--cluster src--><g class="cluster" data-entity="src" data-source-line="4" data-uid="ent0004" id="cluster_src"><path d="M8.5,559.2969 L33.0361,559.2969 A3.75,3.75 0 0 1 35.5361,561.7969 L42.5361,581.5938 L2680.5,581.5938 A2.5,2.5 0 0 1 2683,584.0938 L2683,1940.7969 A2.5,2.5 0 0 1 2680.5,1943.2969 L8.5,1943.2969 A2.5,2.5 0 0 1 6,1940.7969 L6,561.7969 A2.5,2.5 0 0 1 8.5,559.2969" fill="none" style="stroke:#000000;stroke-width:1.5;"/><line style="stroke:#000000;stroke-width:1.5;" x1="6" x2="42.5361" y1="581.5938" y2="581.5938"/><text fill="#000000" font-family="sans-serif" font-size="14" font-weight="bold" lengthAdjust="spacing" textLength="23.5361" x="10" y="574.292">src</text></g><!--cluster agents--><g class="cluster" data-entity="agents" data-source-line="3" data-uid="ent0002" id="cluster_agents"><path d="M32.5,1320.2969 L87.4561,1320.2969 A3.75,3.75 0 0 1 89.9561,1322.7969 L96.9561,1342.5938 L2656.5,1342.5938 A2.5,2.5 0 0 1 2659,1345.0938 L2659,1916.7969 A2.5,2.5 0 0 1 2656.5,1919.2969 L32.5,1919.2969 A2.5,2.5 0 0 1 30,1916.7969 L30,1322.7969 A2.5,2.5 0 0 1 32.5,1320.2969" fill="none" style="stroke:#000000;stroke-width:1.5;"/><line style="stroke:#000000;stroke-width:1.5;" x1="30" x2="96.9561" y1="1342.5938" y2="1342.5938"/><text fill="#000000" font-family="sans-serif" font-size="14" font-weight="bold" lengthAdjust="spacing" textLength="53.9561" x="34" y="1335.292">agents</text></g><!--cluster env--><g class="cluster" data-entity="env" data-source-line="49" data-uid="ent0013" id="cluster_env"><path d="M191.5,602.2969 L221.0879,602.2969 A3.75,3.75 0 0 1 223.5879,604.7969 L230.5879,624.5938 L1388.5,624.5938 A2.5,2.5 0 0 1 1391,627.0938 L1391,1268.7969 A2.5,2.5 0 0 1 1388.5,1271.2969 L191.5,1271.2969 A2.5,2.5 0 0 1 189,1268.7969 L189,604.7969 A2.5,2.5 0 0 1 191.5,602.2969" fill="none" style="stroke:#000000;stroke-width:1.5;"/><line style="stroke:#000000;stroke-width:1.5;" x1="189" x2="230.5879" y1="624.5938" y2="624.5938"/><text fill="#000000" font-family="sans-serif" font-size="14" font-weight="bold" lengthAdjust="spacing" textLength="28.5879" x="193" y="617.292">env</text></g><!--cluster main--><g class="cluster" data-entity="main" data-source-line="90" data-uid="ent0016" id="cluster_main"><path d="M1067.5,43.2969 L1107.3008,43.2969 A3.75,3.75 0 0 1 1109.8008,45.7969 L1116.8008,65.5938 L1622.5,65.5938 A2.5,2.5 0 0 1 1625,68.0938 L1625,188.7969 A2.5,2.5 0 0 1 1622.5,191.2969 L1067.5,191.2969 A2.5,2.5 0 0 1 1065,188.7969 L1065,45.7969 A2.5,2.5 0 0 1 1067.5,43.2969" fill="none" style="stroke:#000000;stroke-width:1.5;"/><line style="stroke:#000000;stroke-width:1.5;" x1="1065" x2="1116.8008" y1="65.5938" y2="65.5938"/><text fill="#000000" font-family="sans-serif" font-size="14" font-weight="bold" lengthAdjust="spacing" textLength="38.8008" x="1069" y="58.292">main</text></g><!--cluster training--><g class="cluster" data-entity="training" data-source-line="97" data-uid="ent0018" id="cluster_training"><path d="M861.5,248.2969 L925.0967,248.2969 A3.75,3.75 0 0 1 927.5967,250.7969 L934.5967,270.5938 L1284.5,270.5938 A2.5,2.5 0 0 1 1287,273.0938 L1287,507.7969 A2.5,2.5 0 0 1 1284.5,510.2969 L861.5,510.2969 A2.5,2.5 0 0 1 859,507.7969 L859,250.7969 A2.5,2.5 0 0 1 861.5,248.2969" fill="none" style="stroke:#000000;stroke-width:1.5;"/><line style="stroke:#000000;stroke-width:1.5;" x1="859" x2="934.5967" y1="270.5938" y2="270.5938"/><text fill="#000000" font-family="sans-serif" font-size="14" font-weight="bold" lengthAdjust="spacing" textLength="62.5967" x="863" y="263.292">training</text></g><!--cluster utils--><g class="cluster" data-entity="utils" data-source-line="114" data-uid="ent0022" id="cluster_utils"><path d="M1313.5,321.7969 L1349.0898,321.7969 A3.75,3.75 0 0 1 1351.5898,324.2969 L1358.5898,344.0938 L1538.5,344.0938 A2.5,2.5 0 0 1 1541,346.5938 L1541,434.2969 A2.5,2.5 0 0 1 1538.5,436.7969 L1313.5,436.7969 A2.5,2.5 0 0 1 1311,434.2969 L1311,324.2969 A2.5,2.5 0 0 1 1313.5,321.7969" fill="none" style="stroke:#000000;stroke-width:1.5;"/><line style="stroke:#000000;stroke-width:1.5;" x1="1311" x2="1358.5898" y1="344.0938" y2="344.0938"/><text fill="#000000" font-family="sans-serif" font-size="14" font-weight="bold" lengthAdjust="spacing" textLength="34.5898" x="1315" y="336.792">utils</text></g><!--class AgentType--><g class="entity" data-entity="AgentType" data-source-line="4" data-uid="ent0003" id="entity_AgentType"><rect fill="#F1F1F1" height="80.5938" rx="2.5" ry="2.5" style="stroke:#181818;stroke-width:0.5;" width="107.7764" x="46" y="1773.7969"/><ellipse cx="61" cy="1789.7969" fill="#EB937F" rx="11" ry="11" style="stroke:#181818;stroke-width:1;"/><path d="M65.1094,1795.7969 L57.3906,1795.7969 L57.3906,1783.4063 L65.1094,1783.4063 L65.1094,1785.5625 L59.8438,1785.5625 L59.8438,1788.2344 L64.6094,1788.2344 L64.6094,1790.3906 L59.8438,1790.3906 L59.8438,1793.6406 L65.1094,1793.6406 L65.1094,1795.7969 Z " fill="#000000"/><text fill="#000000" font-family="sans-serif" font-size="14" lengthAdjust="spacing" textLength="75.7764" x="75" y="1794.6436">AgentType</text><line style="stroke:#181818;stroke-width:0.5;" x1="47" x2="152.7764" y1="1805.7969" y2="1805.7969"/><text fill="#000000" font-family="sans-serif" font-size="14" lengthAdjust="spacing" textLength="36.4971" x="52" y="1822.792">BLUE</text><text fill="#000000" font-family="sans-serif" font-size="14" lengthAdjust="spacing" textLength="29.3535" x="52" y="1839.0889">RED</text><line style="stroke:#181818;stroke-width:0.5;" x1="47" x2="152.7764" y1="1846.3906" y2="1846.3906"/></g><!--class CommsType--><g class="entity" data-entity="CommsType" data-source-line="8" data-uid="ent0005" id="entity_CommsType"><rect fill="#F1F1F1" height="80.5938" rx="2.5" ry="2.5" style="stroke:#181818;stroke-width:0.5;" width="119.2471" x="189.5" y="1773.7969"/><ellipse cx="204.5" cy="1789.7969" fill="#EB937F" rx="11" ry="11" style="stroke:#181818;stroke-width:1;"/><path d="M208.6094,1795.7969 L200.8906,1795.7969 L200.8906,1783.4063 L208.6094,1783.4063 L208.6094,1785.5625 L203.3438,1785.5625 L203.3438,1788.2344 L208.1094,1788.2344 L208.1094,1790.3906 L203.3438,1790.3906 L203.3438,1793.6406 L208.6094,1793.6406 L208.6094,1795.7969 Z " fill="#000000"/><text fill="#000000" font-family="sans-serif" font-size="14" lengthAdjust="spacing" textLength="87.2471" x="218.5" y="1794.6436">CommsType</text><line style="stroke:#181818;stroke-width:0.5;" x1="190.5" x2="307.7471" y1="1805.7969" y2="1805.7969"/><text fill="#000000" font-family="sans-serif" font-size="14" lengthAdjust="spacing" textLength="32.3477" x="195.5" y="1822.792">DIST</text><text fill="#000000" font-family="sans-serif" font-size="14" lengthAdjust="spacing" textLength="49.123" x="195.5" y="1839.0889">GRAPH</text><line style="stroke:#181818;stroke-width:0.5;" x1="190.5" x2="307.7471" y1="1846.3906" y2="1846.3906"/></g><!--class BaseAgent--><g class="entity" data-entity="BaseAgent" data-source-line="12" data-uid="ent0006" id="entity_BaseAgent"><rect fill="#F1F1F1" height="308.75" rx="2.5" ry="2.5" style="stroke:#181818;stroke-width:0.5;" width="1004.2979" x="388" y="1355.2969"/><ellipse cx="848.1338" cy="1371.2969" fill="#A9DCDF" rx="11" ry="11" style="stroke:#181818;stroke-width:1;"/><path d="M848.2432,1366.6406 L847.0869,1371.7188 L849.415,1371.7188 L848.2432,1366.6406 Z M846.7588,1364.4063 L849.7432,1364.4063 L853.1025,1376.7969 L850.6494,1376.7969 L849.8838,1373.7344 L846.6025,1373.7344 L845.8525,1376.7969 L843.415,1376.7969 L846.7588,1364.4063 Z " fill="#000000"/><text fill="#000000" font-family="sans-serif" font-size="14" font-style="italic" lengthAdjust="spacing" textLength="75.5303" x="868.6338" y="1376.1436">BaseAgent</text><line style="stroke:#181818;stroke-width:0.5;" x1="389" x2="1391.2979" y1="1387.2969" y2="1387.2969"/><rect fill="none" height="6" style="stroke:#C82930;stroke-width:1;" width="6" x="396" y="1397.9453"/><text fill="#000000" font-family="sans-serif" font-size="14" lengthAdjust="spacing" textLength="67.4092" x="408" y="1404.292">name: str</text><rect fill="none" height="6" style="stroke:#C82930;stroke-width:1;" width="6" x="396" y="1414.2422"/><text fill="#000000" font-family="sans-serif" font-size="14" lengthAdjust="spacing" textLength="163.6592" x="408" y="1420.5889">agent_type: AgentType</text><rect fill="none" height="6" style="stroke:#C82930;stroke-width:1;" width="6" x="396" y="1430.5391"/><text fill="#000000" font-family="sans-serif" font-size="14" lengthAdjust="spacing" textLength="216.501" x="408" y="1436.8857">communication_bandwidth: int</text><rect fill="none" height="6" style="stroke:#C82930;stroke-width:1;" width="6" x="396" y="1446.8359"/><text fill="#000000" font-family="sans-serif" font-size="14" lengthAdjust="spacing" textLength="178.2471" x="408" y="1453.1826">processing_capability: int</text><rect fill="none" height="6" style="stroke:#C82930;stroke-width:1;" width="6" x="396" y="1463.1328"/><text fill="#000000" font-family="sans-serif" font-size="14" lengthAdjust="spacing" textLength="185.5205" x="408" y="1469.4795">comms_type: CommsType</text><rect fill="none" height="6" style="stroke:#C82930;stroke-width:1;" width="6" x="396" y="1479.4297"/><text fill="#000000" font-family="sans-serif" font-size="14" lengthAdjust="spacing" textLength="48.9043" x="408" y="1485.7764">x: float</text><rect fill="none" height="6" style="stroke:#C82930;stroke-width:1;" width="6" x="396" y="1495.7266"/><text fill="#000000" font-family="sans-serif" font-size="14" lengthAdjust="spacing" textLength="48.9043" x="408" y="1502.0732">y: float</text><rect fill="none" height="6" style="stroke:#C82930;stroke-width:1;" width="6" x="396" y="1512.0234"/><text fill="#000000" font-family="sans-serif" font-size="14" lengthAdjust="spacing" textLength="82.9131" x="408" y="1518.3701">speed: float</text><rect fill="none" height="6" style="stroke:#C82930;stroke-width:1;" width="6" x="396" y="1528.3203"/><text fill="#000000" font-family="sans-serif" font-size="14" lengthAdjust="spacing" textLength="192.3701" x="408" y="1534.667">direction: Tuple[float, float]</text><rect fill="none" height="6" style="stroke:#C82930;stroke-width:1;" width="6" x="396" y="1544.6172"/><text fill="#000000" font-family="sans-serif" font-size="14" lengthAdjust="spacing" textLength="99.8115" x="408" y="1550.9639">is_active: bool</text><rect fill="none" height="6" style="stroke:#C82930;stroke-width:1;" width="6" x="396" y="1560.9141"/><text fill="#000000" font-family="sans-serif" font-size="14" lengthAdjust="spacing" textLength="195.8086" x="408" y="1567.2607">action_space: spaces.Space</text><line style="stroke:#181818;stroke-width:0.5;" x1="389" x2="1391.2979" y1="1574.5625" y2="1574.5625"/><ellipse cx="399" cy="1588.2109" fill="#84BE84" rx="3" ry="3" style="stroke:#038048;stroke-width:1;"/><text fill="#000000" font-family="sans-serif" font-size="14" lengthAdjust="spacing" textLength="978.2979" x="408" y="1591.5576">__init__(name, agent_type, communication_bandwidth, processing_capability, comms_type, x=0.0, y=0.0, speed=1.0, direction=(1.0, 0.0))</text><ellipse cx="399" cy="1604.5078" fill="#84BE84" rx="3" ry="3" style="stroke:#038048;stroke-width:1;"/><text fill="#000000" font-family="sans-serif" font-size="14" lengthAdjust="spacing" textLength="193.4229" x="408" y="1607.8545">choose_action(observation)</text><ellipse cx="399" cy="1620.8047" fill="#84BE84" rx="3" ry="3" style="stroke:#038048;stroke-width:1;"/><text fill="#000000" font-family="sans-serif" font-size="14" lengthAdjust="spacing" textLength="359.4678" x="408" y="1624.1514">receive_message(sender_name, message_content)</text><ellipse cx="399" cy="1637.1016" fill="#84BE84" rx="3" ry="3" style="stroke:#038048;stroke-width:1;"/><text fill="#000000" font-family="sans-serif" font-size="14" lengthAdjust="spacing" textLength="355.3389" x="408" y="1640.4482">send_message(recipient_name, message_content)</text><ellipse cx="399" cy="1653.3984" fill="#84BE84" rx="3" ry="3" style="stroke:#038048;stroke-width:1;"/><text fill="#000000" font-family="sans-serif" font-size="14" lengthAdjust="spacing" textLength="181.5352" x="408" y="1656.7451">get_observation(sub_env)</text></g><!--class BlueAgent--><g class="entity" data-entity="BlueAgent" data-source-line="30" data-uid="ent0007" id="entity_BlueAgent"><rect fill="#F1F1F1" height="178.375" rx="2.5" ry="2.5" style="stroke:#181818;stroke-width:0.5;" width="1211.748" x="344" y="1725.2969"/><ellipse cx="909.4141" cy="1741.2969" fill="#ADD1B2" rx="11" ry="11" style="stroke:#181818;stroke-width:1;"/><path d="M912.3828,1746.9375 Q911.8047,1747.2344 911.1641,1747.375 Q910.5234,1747.5313 909.8203,1747.5313 Q907.3203,1747.5313 905.9922,1745.8906 Q904.6797,1744.2344 904.6797,1741.1094 Q904.6797,1737.9844 905.9922,1736.3281 Q907.3203,1734.6719 909.8203,1734.6719 Q910.5234,1734.6719 911.1641,1734.8281 Q911.8203,1734.9844 912.3828,1735.2813 L912.3828,1738 Q911.7578,1737.4219 911.1641,1737.1563 Q910.5703,1736.875 909.9453,1736.875 Q908.6016,1736.875 907.9141,1737.9531 Q907.2266,1739.0156 907.2266,1741.1094 Q907.2266,1743.2031 907.9141,1744.2813 Q908.6016,1745.3438 909.9453,1745.3438 Q910.5703,1745.3438 911.1641,1745.0781 Q911.7578,1744.7969 912.3828,1744.2188 L912.3828,1746.9375 Z " fill="#000000"/><text fill="#000000" font-family="sans-serif" font-size="14" lengthAdjust="spacing" textLength="72.4199" x="929.9141" y="1746.1436">BlueAgent</text><line style="stroke:#181818;stroke-width:0.5;" x1="345" x2="1554.748" y1="1757.2969" y2="1757.2969"/><rect fill="none" height="6" style="stroke:#C82930;stroke-width:1;" width="6" x="352" y="1767.9453"/><text fill="#000000" font-family="sans-serif" font-size="14" lengthAdjust="spacing" textLength="157.0146" x="364" y="1774.292">detection_radius: float</text><rect fill="none" height="6" style="stroke:#C82930;stroke-width:1;" width="6" x="352" y="1784.2422"/><text fill="#000000" font-family="sans-serif" font-size="14" lengthAdjust="spacing" textLength="472.3086" x="364" y="1790.5889">observed_red_agents: Dict[str, List[Tuple[Tuple[float, float], float]]]</text><line style="stroke:#181818;stroke-width:0.5;" x1="345" x2="1554.748" y1="1797.8906" y2="1797.8906"/><ellipse cx="355" cy="1811.5391" fill="#84BE84" rx="3" ry="3" style="stroke:#038048;stroke-width:1;"/><text fill="#000000" font-family="sans-serif" font-size="14" lengthAdjust="spacing" textLength="1185.748" x="364" y="1814.8857">__init__(name, communication_bandwidth, processing_capability, detection_radius=5.0, comms_type=CommsType.DIST, x=0.0, y=0.0, speed=1.0, direction=(1.0, 0.0))</text><ellipse cx="355" cy="1827.8359" fill="#84BE84" rx="3" ry="3" style="stroke:#038048;stroke-width:1;"/><text fill="#000000" font-family="sans-serif" font-size="14" lengthAdjust="spacing" textLength="257.3799" x="364" y="1831.1826">calculate_distance(pos1, pos2): float</text><ellipse cx="355" cy="1844.1328" fill="#84BE84" rx="3" ry="3" style="stroke:#038048;stroke-width:1;"/><text fill="#000000" font-family="sans-serif" font-size="14" lengthAdjust="spacing" textLength="336.4854" x="364" y="1847.4795">is_within_detection_radius(red_agent_pos): bool</text><ellipse cx="355" cy="1860.4297" fill="#84BE84" rx="3" ry="3" style="stroke:#038048;stroke-width:1;"/><text fill="#000000" font-family="sans-serif" font-size="14" lengthAdjust="spacing" textLength="482.7813" x="364" y="1863.7764">record_red_agent_movement(red_agent_name, position, timestamp)</text><ellipse cx="355" cy="1876.7266" fill="#84BE84" rx="3" ry="3" style="stroke:#038048;stroke-width:1;"/><text fill="#000000" font-family="sans-serif" font-size="14" lengthAdjust="spacing" textLength="474.3525" x="364" y="1880.0732">get_observed_paths(): Dict[str, List[Tuple[Tuple[float, float], float]]]</text><ellipse cx="355" cy="1893.0234" fill="#84BE84" rx="3" ry="3" style="stroke:#038048;stroke-width:1;"/><text fill="#000000" font-family="sans-serif" font-size="14" lengthAdjust="spacing" textLength="193.4229" x="364" y="1896.3701">choose_action(observation)</text></g><!--class RedAgent--><g class="entity" data-entity="RedAgent" data-source-line="40" data-uid="ent0008" id="entity_RedAgent"><rect fill="#F1F1F1" height="80.5938" rx="2.5" ry="2.5" style="stroke:#181818;stroke-width:0.5;" width="1052.457" x="1591" y="1773.7969"/><ellipse cx="2078.645" cy="1789.7969" fill="#ADD1B2" rx="11" ry="11" style="stroke:#181818;stroke-width:1;"/><path d="M2081.6138,1795.4375 Q2081.0356,1795.7344 2080.395,1795.875 Q2079.7544,1796.0313 2079.0513,1796.0313 Q2076.5513,1796.0313 2075.2231,1794.3906 Q2073.9106,1792.7344 2073.9106,1789.6094 Q2073.9106,1786.4844 2075.2231,1784.8281 Q2076.5513,1783.1719 2079.0513,1783.1719 Q2079.7544,1783.1719 2080.395,1783.3281 Q2081.0513,1783.4844 2081.6138,1783.7813 L2081.6138,1786.5 Q2080.9888,1785.9219 2080.395,1785.6563 Q2079.8013,1785.375 2079.1763,1785.375 Q2077.8325,1785.375 2077.145,1786.4531 Q2076.4575,1787.5156 2076.4575,1789.6094 Q2076.4575,1791.7031 2077.145,1792.7813 Q2077.8325,1793.8438 2079.1763,1793.8438 Q2079.8013,1793.8438 2080.395,1793.5781 Q2080.9888,1793.2969 2081.6138,1792.7188 L2081.6138,1795.4375 Z " fill="#000000"/><text fill="#000000" font-family="sans-serif" font-size="14" lengthAdjust="spacing" textLength="68.667" x="2099.145" y="1794.6436">RedAgent</text><line style="stroke:#181818;stroke-width:0.5;" x1="1592" x2="2642.457" y1="1805.7969" y2="1805.7969"/><line style="stroke:#181818;stroke-width:0.5;" x1="1592" x2="2642.457" y1="1813.7969" y2="1813.7969"/><ellipse cx="1602" cy="1827.4453" fill="#84BE84" rx="3" ry="3" style="stroke:#038048;stroke-width:1;"/><text fill="#000000" font-family="sans-serif" font-size="14" lengthAdjust="spacing" textLength="1026.457" x="1611" y="1830.792">__init__(name, communication_bandwidth, processing_capability, comms_type=CommsType.DIST, x=0.0, y=0.0, speed=1.0, direction=(1.0, 0.0))</text><ellipse cx="1602" cy="1843.7422" fill="#84BE84" rx="3" ry="3" style="stroke:#038048;stroke-width:1;"/><text fill="#000000" font-family="sans-serif" font-size="14" lengthAdjust="spacing" textLength="193.4229" x="1611" y="1847.0889">choose_action(observation)</text></g><!--class AECGameEnv--><g class="entity" data-entity="AECGameEnv" data-source-line="50" data-uid="ent0014" id="entity_AECGameEnv"><rect fill="#F1F1F1" height="618.3906" rx="2.5" ry="2.5" style="stroke:#181818;stroke-width:0.5;" width="1169.2354" x="205.5" y="637.2969"/><ellipse cx="737.9272" cy="653.2969" fill="#ADD1B2" rx="11" ry="11" style="stroke:#181818;stroke-width:1;"/><path d="M740.896,658.9375 Q740.3179,659.2344 739.6772,659.375 Q739.0366,659.5313 738.3335,659.5313 Q735.8335,659.5313 734.5054,657.8906 Q733.1929,656.2344 733.1929,653.1094 Q733.1929,649.9844 734.5054,648.3281 Q735.8335,646.6719 738.3335,646.6719 Q739.0366,646.6719 739.6772,646.8281 Q740.3335,646.9844 740.896,647.2813 L740.896,650 Q740.271,649.4219 739.6772,649.1563 Q739.0835,648.875 738.4585,648.875 Q737.1147,648.875 736.4272,649.9531 Q735.7397,651.0156 735.7397,653.1094 Q735.7397,655.2031 736.4272,656.2813 Q737.1147,657.3438 738.4585,657.3438 Q739.0835,657.3438 739.6772,657.0781 Q740.271,656.7969 740.896,656.2188 L740.896,658.9375 Z " fill="#000000"/><text fill="#000000" font-family="sans-serif" font-size="14" lengthAdjust="spacing" textLength="95.8809" x="758.4272" y="658.1436">AECGameEnv</text><line style="stroke:#181818;stroke-width:0.5;" x1="206.5" x2="1373.7354" y1="669.2969" y2="669.2969"/><rect fill="none" height="6" style="stroke:#C82930;stroke-width:1;" width="6" x="213.5" y="679.9453"/><text fill="#000000" font-family="sans-serif" font-size="14" lengthAdjust="spacing" textLength="102.9834" x="225.5" y="686.292">metadata: dict</text><rect fill="none" height="6" style="stroke:#C82930;stroke-width:1;" width="6" x="213.5" y="696.2422"/><text fill="#000000" font-family="sans-serif" font-size="14" lengthAdjust="spacing" textLength="110.7422" x="225.5" y="702.5889">env_config: dict</text><rect fill="none" height="6" style="stroke:#C82930;stroke-width:1;" width="6" x="213.5" y="712.5391"/><text fill="#000000" font-family="sans-serif" font-size="14" lengthAdjust="spacing" textLength="113.627" x="225.5" y="718.8857">grid_width: float</text><rect fill="none" height="6" style="stroke:#C82930;stroke-width:1;" width="6" x="213.5" y="728.8359"/><text fill="#000000" font-family="sans-serif" font-size="14" lengthAdjust="spacing" textLength="119.6631" x="225.5" y="735.1826">grid_height: float</text><rect fill="none" height="6" style="stroke:#C82930;stroke-width:1;" width="6" x="213.5" y="745.1328"/><text fill="#000000" font-family="sans-serif" font-size="14" lengthAdjust="spacing" textLength="165.5938" x="225.5" y="751.4795">save_episode_gifs: bool</text><rect fill="none" height="6" style="stroke:#C82930;stroke-width:1;" width="6" x="213.5" y="761.4297"/><text fill="#000000" font-family="sans-serif" font-size="14" lengthAdjust="spacing" textLength="70.9434" x="225.5" y="767.7764">gif_dir: str</text><rect fill="none" height="6" style="stroke:#C82930;stroke-width:1;" width="6" x="213.5" y="777.7266"/><text fill="#000000" font-family="sans-serif" font-size="14" lengthAdjust="spacing" textLength="114.4746" x="225.5" y="784.0732">gif_figsize: tuple</text><rect fill="none" height="6" style="stroke:#C82930;stroke-width:1;" width="6" x="213.5" y="794.0234"/><text fill="#000000" font-family="sans-serif" font-size="14" lengthAdjust="spacing" textLength="164.9922" x="225.5" y="800.3701">episode_gif_frames: list</text><rect fill="none" height="6" style="stroke:#C82930;stroke-width:1;" width="6" x="213.5" y="810.3203"/><text fill="#000000" font-family="sans-serif" font-size="14" lengthAdjust="spacing" textLength="201.8652" x="225.5" y="816.667">current_episode_number: int</text><rect fill="none" height="6" style="stroke:#C82930;stroke-width:1;" width="6" x="213.5" y="826.6172"/><text fill="#000000" font-family="sans-serif" font-size="14" lengthAdjust="spacing" textLength="248.7939" x="225.5" y="832.9639">agent_objects: Dict[str, BaseAgent]</text><rect fill="none" height="6" style="stroke:#C82930;stroke-width:1;" width="6" x="213.5" y="842.9141"/><text fill="#000000" font-family="sans-serif" font-size="14" lengthAdjust="spacing" textLength="141.7842" x="225.5" y="849.2607">possible_agents: list</text><rect fill="none" height="6" style="stroke:#C82930;stroke-width:1;" width="6" x="213.5" y="859.2109"/><text fill="#000000" font-family="sans-serif" font-size="14" lengthAdjust="spacing" textLength="190.9141" x="225.5" y="865.5576">agent_name_mapping: dict</text><rect fill="none" height="6" style="stroke:#C82930;stroke-width:1;" width="6" x="213.5" y="875.5078"/><text fill="#000000" font-family="sans-serif" font-size="14" lengthAdjust="spacing" textLength="77.4648" x="225.5" y="881.8545">agents: list</text><rect fill="none" height="6" style="stroke:#C82930;stroke-width:1;" width="6" x="213.5" y="891.8047"/><text fill="#000000" font-family="sans-serif" font-size="14" lengthAdjust="spacing" textLength="218.4766" x="225.5" y="898.1514">_agent_selector: AgentSelector</text><rect fill="none" height="6" style="stroke:#C82930;stroke-width:1;" width="6" x="213.5" y="908.1016"/><text fill="#000000" font-family="sans-serif" font-size="14" lengthAdjust="spacing" textLength="140.5879" x="225.5" y="914.4482">_action_spaces: dict</text><rect fill="none" height="6" style="stroke:#C82930;stroke-width:1;" width="6" x="213.5" y="924.3984"/><text fill="#000000" font-family="sans-serif" font-size="14" lengthAdjust="spacing" textLength="180.291" x="225.5" y="930.7451">_observation_spaces: dict</text><rect fill="none" height="6" style="stroke:#C82930;stroke-width:1;" width="6" x="213.5" y="940.6953"/><text fill="#000000" font-family="sans-serif" font-size="14" lengthAdjust="spacing" textLength="120.9072" x="225.5" y="947.042">render_mode: str</text><rect fill="none" height="6" style="stroke:#C82930;stroke-width:1;" width="6" x="213.5" y="956.9922"/><text fill="#000000" font-family="sans-serif" font-size="14" lengthAdjust="spacing" textLength="64.9961" x="225.5" y="963.3389">steps: int</text><rect fill="none" height="6" style="stroke:#C82930;stroke-width:1;" width="6" x="213.5" y="973.2891"/><text fill="#000000" font-family="sans-serif" font-size="14" lengthAdjust="spacing" textLength="194.2432" x="225.5" y="979.6357">terminations: Dict[str, bool]</text><rect fill="none" height="6" style="stroke:#C82930;stroke-width:1;" width="6" x="213.5" y="989.5859"/><text fill="#000000" font-family="sans-serif" font-size="14" lengthAdjust="spacing" textLength="184.6729" x="225.5" y="995.9326">truncations: Dict[str, bool]</text><rect fill="none" height="6" style="stroke:#C82930;stroke-width:1;" width="6" x="213.5" y="1005.8828"/><text fill="#000000" font-family="sans-serif" font-size="14" lengthAdjust="spacing" textLength="163.1738" x="225.5" y="1012.2295">rewards: Dict[str, float]</text><rect fill="none" height="6" style="stroke:#C82930;stroke-width:1;" width="6" x="213.5" y="1022.1797"/><text fill="#000000" font-family="sans-serif" font-size="14" lengthAdjust="spacing" textLength="255.001" x="225.5" y="1028.5264">_cumulative_rewards: Dict[str, float]</text><rect fill="none" height="6" style="stroke:#C82930;stroke-width:1;" width="6" x="213.5" y="1038.4766"/><text fill="#000000" font-family="sans-serif" font-size="14" lengthAdjust="spacing" textLength="136.7939" x="225.5" y="1044.8232">infos: Dict[str, Dict]</text><rect fill="none" height="6" style="stroke:#C82930;stroke-width:1;" width="6" x="213.5" y="1054.7734"/><text fill="#000000" font-family="sans-serif" font-size="14" lengthAdjust="spacing" textLength="138.0723" x="225.5" y="1061.1201">agent_selection: str</text><line style="stroke:#181818;stroke-width:0.5;" x1="206.5" x2="1373.7354" y1="1068.4219" y2="1068.4219"/><ellipse cx="216.5" cy="1082.0703" fill="#84BE84" rx="3" ry="3" style="stroke:#038048;stroke-width:1;"/><text fill="#000000" font-family="sans-serif" font-size="14" lengthAdjust="spacing" textLength="1143.2354" x="225.5" y="1085.417">__init__(agents, render_mode="human", grid_width=10.0, grid_height=10.0, save_episode_gifs=False, gif_dir="episode_gifs", gif_figsize=(6, 6), max_cycles=100)</text><ellipse cx="216.5" cy="1098.3672" fill="#84BE84" rx="3" ry="3" style="stroke:#038048;stroke-width:1;"/><text fill="#000000" font-family="sans-serif" font-size="14" lengthAdjust="spacing" textLength="307.3301" x="225.5" y="1101.7139">observation_space(agent): gym.spaces.Dict</text><ellipse cx="216.5" cy="1114.6641" fill="#84BE84" rx="3" ry="3" style="stroke:#038048;stroke-width:1;"/><text fill="#000000" font-family="sans-serif" font-size="14" lengthAdjust="spacing" textLength="282.4336" x="225.5" y="1118.0107">action_space(agent): gym.spaces.Space</text><ellipse cx="216.5" cy="1130.9609" fill="#84BE84" rx="3" ry="3" style="stroke:#038048;stroke-width:1;"/><text fill="#000000" font-family="sans-serif" font-size="14" lengthAdjust="spacing" textLength="142.5088" x="225.5" y="1134.3076">observe(agent): dict</text><ellipse cx="216.5" cy="1147.2578" fill="#84BE84" rx="3" ry="3" style="stroke:#038048;stroke-width:1;"/><text fill="#000000" font-family="sans-serif" font-size="14" lengthAdjust="spacing" textLength="519.8867" x="225.5" y="1150.6045">reset(seed=None, options=None): Tuple[Dict[str, ndarray], Dict[str, Dict]]</text><ellipse cx="216.5" cy="1163.5547" fill="#84BE84" rx="3" ry="3" style="stroke:#038048;stroke-width:1;"/><text fill="#000000" font-family="sans-serif" font-size="14" lengthAdjust="spacing" textLength="84.3008" x="225.5" y="1166.9014">step(action)</text><ellipse cx="216.5" cy="1179.8516" fill="#84BE84" rx="3" ry="3" style="stroke:#038048;stroke-width:1;"/><text fill="#000000" font-family="sans-serif" font-size="14" lengthAdjust="spacing" textLength="57.4219" x="225.5" y="1183.1982">render()</text><rect fill="#F24D5C" height="6" style="stroke:#C82930;stroke-width:1;" width="6" x="213.5" y="1193.1484"/><text fill="#000000" font-family="sans-serif" font-size="14" lengthAdjust="spacing" textLength="99.2988" x="225.5" y="1199.4951">_render_text()</text><rect fill="#F24D5C" height="6" style="stroke:#C82930;stroke-width:1;" width="6" x="213.5" y="1209.4453"/><text fill="#000000" font-family="sans-serif" font-size="14" lengthAdjust="spacing" textLength="142.625" x="225.5" y="1215.792">_render_matplotlib()</text><rect fill="#F24D5C" height="6" style="stroke:#C82930;stroke-width:1;" width="6" x="213.5" y="1225.7422"/><text fill="#000000" font-family="sans-serif" font-size="14" lengthAdjust="spacing" textLength="195.207" x="225.5" y="1232.0889">_save_current_episode_gif()</text><ellipse cx="216.5" cy="1245.0391" fill="#84BE84" rx="3" ry="3" style="stroke:#038048;stroke-width:1;"/><text fill="#000000" font-family="sans-serif" font-size="14" lengthAdjust="spacing" textLength="46.9834" x="225.5" y="1248.3857">close()</text></g><!--class main--><g class="entity" data-entity="main" data-source-line="91" data-uid="ent0017" id="entity_main"><rect fill="#F1F1F1" height="80.5938" rx="2.5" ry="2.5" style="stroke:#181818;stroke-width:0.5;" width="492.8535" x="1108.5" y="86.2969"/><ellipse cx="1333.187" cy="102.2969" fill="#ADD1B2" rx="11" ry="11" style="stroke:#181818;stroke-width:1;"/><path d="M1336.1558,107.9375 Q1335.5776,108.2344 1334.937,108.375 Q1334.2964,108.5313 1333.5933,108.5313 Q1331.0933,108.5313 1329.7651,106.8906 Q1328.4526,105.2344 1328.4526,102.1094 Q1328.4526,98.9844 1329.7651,97.3281 Q1331.0933,95.6719 1333.5933,95.6719 Q1334.2964,95.6719 1334.937,95.8281 Q1335.5933,95.9844 1336.1558,96.2813 L1336.1558,99 Q1335.5308,98.4219 1334.937,98.1563 Q1334.3433,97.875 1333.7183,97.875 Q1332.3745,97.875 1331.687,98.9531 Q1330.9995,100.0156 1330.9995,102.1094 Q1330.9995,104.2031 1331.687,105.2813 Q1332.3745,106.3438 1333.7183,106.3438 Q1334.3433,106.3438 1334.937,106.0781 Q1335.5308,105.7969 1336.1558,105.2188 L1336.1558,107.9375 Z " fill="#000000"/><text fill="#000000" font-family="sans-serif" font-size="14" lengthAdjust="spacing" textLength="34.9795" x="1353.687" y="107.1436">main</text><line style="stroke:#181818;stroke-width:0.5;" x1="1109.5" x2="1600.3535" y1="118.2969" y2="118.2969"/><line style="stroke:#181818;stroke-width:0.5;" x1="1109.5" x2="1600.3535" y1="126.2969" y2="126.2969"/><ellipse cx="1119.5" cy="139.9453" fill="#84BE84" rx="3" ry="3" style="stroke:#038048;stroke-width:1;"/><text fill="#000000" font-family="sans-serif" font-size="14" lengthAdjust="spacing" textLength="127.5723" x="1128.5" y="143.292">main(config_path)</text><ellipse cx="1119.5" cy="156.2422" fill="#84BE84" rx="3" ry="3" style="stroke:#038048;stroke-width:1;"/><text fill="#000000" font-family="sans-serif" font-size="14" lengthAdjust="spacing" textLength="466.8535" x="1128.5" y="159.5889">setup_experiment_results_dir(base_results_dir, experiment_name)</text></g><!--class Trainer--><g class="entity" data-entity="Trainer" data-source-line="98" data-uid="ent0019" id="entity_Trainer"><rect fill="#F1F1F1" height="210.9688" rx="2.5" ry="2.5" style="stroke:#181818;stroke-width:0.5;" width="395.4209" x="875.5" y="283.2969"/><ellipse cx="1043.9512" cy="299.2969" fill="#ADD1B2" rx="11" ry="11" style="stroke:#181818;stroke-width:1;"/><path d="M1046.9199,304.9375 Q1046.3418,305.2344 1045.7012,305.375 Q1045.0605,305.5313 1044.3574,305.5313 Q1041.8574,305.5313 1040.5293,303.8906 Q1039.2168,302.2344 1039.2168,299.1094 Q1039.2168,295.9844 1040.5293,294.3281 Q1041.8574,292.6719 1044.3574,292.6719 Q1045.0605,292.6719 1045.7012,292.8281 Q1046.3574,292.9844 1046.9199,293.2813 L1046.9199,296 Q1046.2949,295.4219 1045.7012,295.1563 Q1045.1074,294.875 1044.4824,294.875 Q1043.1387,294.875 1042.4512,295.9531 Q1041.7637,297.0156 1041.7637,299.1094 Q1041.7637,301.2031 1042.4512,302.2813 Q1043.1387,303.3438 1044.4824,303.3438 Q1045.1074,303.3438 1045.7012,303.0781 Q1046.2949,302.7969 1046.9199,302.2188 L1046.9199,304.9375 Z " fill="#000000"/><text fill="#000000" font-family="sans-serif" font-size="14" lengthAdjust="spacing" textLength="50.0186" x="1064.4512" y="304.1436">Trainer</text><line style="stroke:#181818;stroke-width:0.5;" x1="876.5" x2="1269.9209" y1="315.2969" y2="315.2969"/><rect fill="none" height="6" style="stroke:#C82930;stroke-width:1;" width="6" x="883.5" y="325.9453"/><text fill="#000000" font-family="sans-serif" font-size="14" lengthAdjust="spacing" textLength="130.8193" x="895.5" y="332.292">env: AECGameEnv</text><rect fill="none" height="6" style="stroke:#C82930;stroke-width:1;" width="6" x="883.5" y="342.2422"/><text fill="#000000" font-family="sans-serif" font-size="14" lengthAdjust="spacing" textLength="77.4648" x="895.5" y="348.5889">agents: list</text><rect fill="none" height="6" style="stroke:#C82930;stroke-width:1;" width="6" x="883.5" y="358.5391"/><text fill="#000000" font-family="sans-serif" font-size="14" lengthAdjust="spacing" textLength="77.9707" x="895.5" y="364.8857">config: dict</text><rect fill="none" height="6" style="stroke:#C82930;stroke-width:1;" width="6" x="883.5" y="374.8359"/><text fill="#000000" font-family="sans-serif" font-size="14" lengthAdjust="spacing" textLength="100.4473" x="895.5" y="381.1826">results_dir: str</text><line style="stroke:#181818;stroke-width:0.5;" x1="876.5" x2="1269.9209" y1="388.4844" y2="388.4844"/><ellipse cx="886.5" cy="402.1328" fill="#84BE84" rx="3" ry="3" style="stroke:#038048;stroke-width:1;"/><text fill="#000000" font-family="sans-serif" font-size="14" lengthAdjust="spacing" textLength="369.4209" x="895.5" y="405.4795">__init__(env, agents: list, config: dict, results_dir: str)</text><ellipse cx="886.5" cy="418.4297" fill="#84BE84" rx="3" ry="3" style="stroke:#038048;stroke-width:1;"/><text fill="#000000" font-family="sans-serif" font-size="14" lengthAdjust="spacing" textLength="116.8057" x="895.5" y="421.7764">_setup_policies()</text><ellipse cx="886.5" cy="434.7266" fill="#84BE84" rx="3" ry="3" style="stroke:#038048;stroke-width:1;"/><text fill="#000000" font-family="sans-serif" font-size="14" lengthAdjust="spacing" textLength="43.5107" x="895.5" y="438.0732">train()</text><ellipse cx="886.5" cy="451.0234" fill="#84BE84" rx="3" ry="3" style="stroke:#038048;stroke-width:1;"/><text fill="#000000" font-family="sans-serif" font-size="14" lengthAdjust="spacing" textLength="194.7148" x="895.5" y="454.3701">save_models(episode_num)</text><ellipse cx="886.5" cy="467.3203" fill="#84BE84" rx="3" ry="3" style="stroke:#038048;stroke-width:1;"/><text fill="#000000" font-family="sans-serif" font-size="14" lengthAdjust="spacing" textLength="167.8564" x="895.5" y="470.667">load_models(model_dir)</text><ellipse cx="886.5" cy="483.6172" fill="#84BE84" rx="3" ry="3" style="stroke:#038048;stroke-width:1;"/><text fill="#000000" font-family="sans-serif" font-size="14" lengthAdjust="spacing" textLength="97.9043" x="895.5" y="486.9639">save_results()</text></g><!--class config_loader--><g class="entity" data-entity="config_loader" data-source-line="115" data-uid="ent0023" id="entity_config_loader"><rect fill="#F1F1F1" height="64.2969" rx="2.5" ry="2.5" style="stroke:#181818;stroke-width:0.5;" width="198.3545" x="1327" y="356.7969"/><ellipse cx="1374.8618" cy="372.7969" fill="#ADD1B2" rx="11" ry="11" style="stroke:#181818;stroke-width:1;"/><path d="M1377.8306,378.4375 Q1377.2524,378.7344 1376.6118,378.875 Q1375.9712,379.0313 1375.2681,379.0313 Q1372.7681,379.0313 1371.4399,377.3906 Q1370.1274,375.7344 1370.1274,372.6094 Q1370.1274,369.4844 1371.4399,367.8281 Q1372.7681,366.1719 1375.2681,366.1719 Q1375.9712,366.1719 1376.6118,366.3281 Q1377.2681,366.4844 1377.8306,366.7813 L1377.8306,369.5 Q1377.2056,368.9219 1376.6118,368.6563 Q1376.0181,368.375 1375.3931,368.375 Q1374.0493,368.375 1373.3618,369.4531 Q1372.6743,370.5156 1372.6743,372.6094 Q1372.6743,374.7031 1373.3618,375.7813 Q1374.0493,376.8438 1375.3931,376.8438 Q1376.0181,376.8438 1376.6118,376.5781 Q1377.2056,376.2969 1377.8306,375.7188 L1377.8306,378.4375 Z " fill="#000000"/><text fill="#000000" font-family="sans-serif" font-size="14" lengthAdjust="spacing" textLength="94.1309" x="1395.3618" y="377.6436">config_loader</text><line style="stroke:#181818;stroke-width:0.5;" x1="1328" x2="1524.3545" y1="388.7969" y2="388.7969"/><line style="stroke:#181818;stroke-width:0.5;" x1="1328" x2="1524.3545" y1="396.7969" y2="396.7969"/><ellipse cx="1338" cy="410.4453" fill="#84BE84" rx="3" ry="3" style="stroke:#038048;stroke-width:1;"/><text fill="#000000" font-family="sans-serif" font-size="14" lengthAdjust="spacing" textLength="172.3545" x="1347" y="413.792">load_config(config_path)</text></g><!--reverse link BaseAgent to BlueAgent--><g class="link" data-entity-1="BaseAgent" data-entity-2="BlueAgent" data-source-line="44" data-uid="lnk9" id="link_BaseAgent_BlueAgent"><path codeLine="44" d="M924.0322,1682.3629 C928.1422,1703.0829 928.74,1706.0869 932.51,1725.1269" fill="none" id="BaseAgent-backto-BlueAgent" style="stroke:#181818;stroke-width:1;"/><polygon fill="none" points="920.53,1664.7069,918.1469,1683.5303,929.9176,1681.1955,920.53,1664.7069" style="stroke:#181818;stroke-width:1;"/></g><!--reverse link BaseAgent to RedAgent--><g class="link" data-entity-1="BaseAgent" data-entity-2="RedAgent" data-source-line="45" data-uid="lnk10" id="link_BaseAgent_RedAgent"><path codeLine="45" d="M1409.6467,1638.9055 C1611.7267,1688.7255 1813.01,1738.3569 1956.73,1773.7869" fill="none" id="BaseAgent-backto-RedAgent" style="stroke:#181818;stroke-width:1;"/><polygon fill="none" points="1392.17,1634.5969,1408.2105,1644.7311,1411.0829,1633.0799,1392.17,1634.5969" style="stroke:#181818;stroke-width:1;"/></g><!--link BaseAgent to AgentType--><g class="link" data-entity-1="BaseAgent" data-entity-2="AgentType" data-source-line="46" data-uid="lnk11" id="link_BaseAgent_AgentType"><path codeLine="46" d="M387.95,1618.6669 C312.15,1646.6669 237.5,1681.6569 172,1725.2969 C153.27,1737.7769 136.95,1756.5869 124.6,1773.6269" fill="none" id="BaseAgent-AgentType" style="stroke:#181818;stroke-width:1;stroke-dasharray:7.0,7.0;"/></g><!--link BaseAgent to CommsType--><g class="link" data-entity-1="BaseAgent" data-entity-2="CommsType" data-source-line="47" data-uid="lnk12" id="link_BaseAgent_CommsType"><path codeLine="47" d="M429.5,1664.4669 C393.7,1682.8969 359.05,1703.1469 327,1725.2969 C308.19,1738.2969 290.91,1756.7669 277.42,1773.4269" fill="none" id="BaseAgent-CommsType" style="stroke:#181818;stroke-width:1;stroke-dasharray:7.0,7.0;"/></g><!--reverse link AECGameEnv to BaseAgent--><g class="link" data-entity-1="AECGameEnv" data-entity-2="BaseAgent" data-source-line="87" data-uid="lnk15" id="link_AECGameEnv_BaseAgent"><path codeLine="87" d="M847.0022,1267.3713 C853.1322,1301.8213 857.07,1323.8869 862.63,1355.1169" fill="none" id="AECGameEnv-backto-BaseAgent" style="stroke:#181818;stroke-width:1;"/><polygon fill="none" points="844.9,1255.5569,842.013,1262.1648,847.0022,1267.3713,849.8893,1260.7633,844.9,1255.5569" style="stroke:#181818;stroke-width:1;"/><text fill="#000000" font-family="sans-serif" font-size="13" lengthAdjust="spacing" textLength="59.8584" x="854" y="1300.3638">manages</text><text fill="#000000" font-family="sans-serif" font-size="13" lengthAdjust="spacing" textLength="8.271" x="838.2525" y="1276.0343">1</text><text fill="#000000" font-family="sans-serif" font-size="13" lengthAdjust="spacing" textLength="36.5625" x="824.4388" y="1344.3374">many</text></g><!--link Trainer to AECGameEnv--><g class="link" data-entity-1="Trainer" data-entity-2="AECGameEnv" data-source-line="110" data-uid="lnk20" id="link_Trainer_AECGameEnv"><path codeLine="110" d="M1019.6,494.6069 C998.54,535.9569 975.8733,580.4405 949.7733,631.6805" fill="none" id="Trainer-to-AECGameEnv" style="stroke:#181818;stroke-width:1;"/><polygon fill="#181818" points="947.05,637.0269,954.6992,630.8228,949.3194,632.5716,947.5707,627.1918,947.05,637.0269" style="stroke:#181818;stroke-width:1;"/><text fill="#000000" font-family="sans-serif" font-size="13" lengthAdjust="spacing" textLength="29.7832" x="1001" y="539.3638">uses</text></g><!--link Trainer to BaseAgent--><g class="link" data-entity-1="Trainer" data-entity-2="BaseAgent" data-source-line="111" data-uid="lnk21" id="link_Trainer_BaseAgent"><path codeLine="111" d="M1262.41,494.3269 C1278.74,502.6469 1295.09,510.7469 1311,518.2969 C1345.75,534.7869 1369.61,519.3369 1391,551.2969 C1570.95,820.1969 1565.77,1007.0069 1391,1279.2969 C1372.59,1307.9769 1354.1725,1329.2421 1328.2425,1351.2721" fill="none" id="Trainer-to-BaseAgent" style="stroke:#181818;stroke-width:1;"/><polygon fill="#181818" points="1323.67,1355.1569,1333.1187,1352.378,1327.4805,1351.9195,1327.9389,1346.2813,1323.67,1355.1569" style="stroke:#181818;stroke-width:1;"/><text fill="#000000" font-family="sans-serif" font-size="13" lengthAdjust="spacing" textLength="29.7832" x="1525" y="950.8638">uses</text></g><!--link main to config_loader--><g class="link" data-entity-1="main" data-entity-2="config_loader" data-source-line="120" data-uid="lnk24" id="link_main_config_loader"><path codeLine="120" d="M1081.4994,191.3508 C1082.4625,193.3398 1083.5216,195.2752 1084.6856,197.1382 C1087.0136,200.8642 1089.7613,204.3006 1093,207.2969 C1097.01,211.0069 1282.18,237.7169 1287,240.2969 C1338.8,268.0469 1378.7482,317.4283 1402.6382,351.8383" fill="none" id="main-to-config_loader" style="stroke:#181818;stroke-width:1;stroke-dasharray:7.0,7.0;"/><polygon fill="#181818" points="1406.06,356.7669,1404.213,347.0928,1403.2085,352.6597,1397.6415,351.6552,1406.06,356.7669" style="stroke:#181818;stroke-width:1;"/><text fill="#000000" font-family="sans-serif" font-size="13" lengthAdjust="spacing" textLength="29.7832" x="1239" y="228.3638">uses</text></g><!--link main to AECGameEnv--><g class="link" data-entity-1="main" data-entity-2="AECGameEnv" data-source-line="121" data-uid="lnk25" id="link_main_AECGameEnv"><path codeLine="121" d="M1064.8185,128.2917 C1064.1625,128.3397 1063.4701,128.392 1062.7425,128.449 C1056.9217,128.9051 1048.8468,129.6599 1039.1005,130.8836 C1019.6078,133.3309 993.4294,137.6538 965.2263,145.2131 C908.82,160.3319 844.315,188.3969 809,240.2969 C731.43,354.3069 717.9881,498.4732 727.7681,630.8932" fill="none" id="main-to-AECGameEnv" style="stroke:#181818;stroke-width:1;stroke-dasharray:7.0,7.0;"/><polygon fill="#181818" points="728.21,636.8769,731.5362,627.6067,727.8417,631.8905,723.558,628.1959,728.21,636.8769" style="stroke:#181818;stroke-width:1;"/><text fill="#000000" font-family="sans-serif" font-size="13" lengthAdjust="spacing" textLength="48.3247" x="810" y="393.3638">creates</text></g><!--link main to Trainer--><g class="link" data-entity-1="main" data-entity-2="Trainer" data-source-line="122" data-uid="lnk26" id="link_main_Trainer"><path codeLine="122" d="M1073,191.7782 C1073,192.0259 1073,192.2739 1073,192.5224 C1073,193.0194 1073,193.5181 1073,194.0184 C1073,195.0192 1073,196.0266 1073,197.0404 C1073,199.068 1073,201.121 1073,203.1968 C1073,211.4997 1073,220.1659 1073,229.0195 C1073,246.7269 1073,259.1844 1073,276.9869" fill="none" id="main-to-Trainer" style="stroke:#181818;stroke-width:1;stroke-dasharray:7.0,7.0;"/><polygon fill="#181818" points="1073,282.9869,1077,273.9869,1073,277.9869,1069,273.9869,1073,282.9869" style="stroke:#181818;stroke-width:1;"/><text fill="#000000" font-family="sans-serif" font-size="13" lengthAdjust="spacing" textLength="48.3247" x="1074" y="228.3638">creates</text></g><!--SRC=[jLVVRzis47xFNq7uIKOK8ncmFXXpWJJ9kW55CJJPKs0GD7MnkKcaG599lBN_-uwKB1qbP-aGB40WYNSyte_llgEzyYMmArFL9NXWbrUVsQMLE-L1-iR2oKajv9zY2spch5pWY_Pknlu-OVW7kgdOPLYwszVGBOQ_3vz-l-a_ljnSn_TlmnuyhdAZFTU_tjxr7n-_NFxs2zabDivR8JsJfN2EVH0Euhba_ndJee8bGqMo5Xtc7ezQ3fuIkKHF6gsayCfelX6wU5A5tosPqfwerTP8S4xfBPUY5XjLAhyVAmLRhZkhZv38dvVieJJ2CqOMzySMNGrG71CKoc9TqDKbkskmOlTH9MyrrucgSXmJfXxHcOqnPI8JqGPtMDkGiV1mYzlm86gdZ7EbbUSy2vdDIIxpb_AM7yzKJdAJi-VL-U8yP_ls4MDTNOJNFhfL5hzHFfyJV-JE60UyzJup6mVsCJf0bT04ODIyGY_Guyo1Bi3oDeHkaKkZFGP3zmMzVXCQKRKAuRwwRmkU4rSorsmuwCSvGMy7sh8v0je2V1ipjw9GZUkgJZHQur1mY_zj0oxPjPB-7g6Uiq_A-ViM34SWSNYkro_NzR_MSkpowiTGhA72gnxyYz3KRocuA6LJ2W-ym2Y5bf3LnbsWPyRzC1-dwZHW_advdT9yx6FM9u_ZtddR4obgZ2KfvfLvX0fVoCOsMxXT1SCvymfXuKLL7uS3xgk5txbi_iPolG9xYh4lK8mXzkPo_o-5_PwG1fR_wUlPsT0_nuI7m4UonMB4-ebe8EblwPZ3_ZtCk3QlbpTN7p5vD_enQTuAl2Y45qiCMDAUHGE1AnxKTYBQMbNmRiXC2JvATw2sEtzqC0XaDgYLCmNmhNfmHyWTbx5TR9o44m5wvDHVIFe-W2yH4xFymMAqQBn4j2PAih4szC916QVv1coSXEc4YHrZDdyW31AwwWkmfkFL8Ems9VJq5iwTM0lmvPMeQqJe9AqlxEnQrq69ZXZRNG9kkyz4aSn4Dp5FAVub7TjEcWhpChw6E0-r6zyNFDXAwMWoIL6eACsEjusMhwjPU1AsI5HQCg5XoAOAX1e6vFVeA_rW4etmjfvKfarll9Qae2FaqnOefrbQpNPD9VGi9qsnkeXSGlgWMvb0V_MpA1toMOVtrOmAPpc5-ofxbxDtSvpZufdBlIp1eTLpoaYJ-hOE8tTlzzMYko9TquAV9jUeO-hnHZKvOr0jKdCM77Yyho29VZOQ8pDrB7hycXzkV4CjT26i5VjrFguF7Hu1ULdhQ7fB2bN8vXGRNMKyFFkZWahukZI-L9jK72ip9WRCVfOmVec4dr5w9vmwkvWnWom-GpJiPmD7BB5W6hFbaA07Xgw4qYazXvMUc4_ZPzRIRnp1yvFXaeUyn-6v1gl2TCVGN5Dw5m2KRV1Okf0peXZ8v-0zTGP_bY30zRPrg7NdBgo1xJsAys190Zxv5zOAloCcWoDqT-yN9HVIO7X6dXZC4qlvnCIG5jxcfJQbaWfSDaXYUEGxrZhqRkaoCWC61MIGug0G7-6uqVxEaMWsOE6GhxEpznGLIzOuB7qg7mPu9wR5QBmg7Qr41uBW5Ab7vsKh70CbbZS2Qh5uFpBG7TbB4sUb1Rof4kd1xLxq3m00]--></g></svg>